<svg xmlns="http://www.w3.org/2000/svg" width="344.839" height="68.792" viewBox="0 0 344.839 68.792">
    <path fill="#3cb4ff" d="M69.255-34.094a36.7 36.7 0 0 1-4.244 17.882 29.249 29.249 0 0 1-12.13 11.991A37.942 37.942 0 0 1 34.7 0H6.541v-66.519h27.553q35.161 0 35.161 32.425zm-21.292.186a19.144 19.144 0 0 0-1.971-8.767 14.262 14.262 0 0 0-5.636-6.03 16.843 16.843 0 0 0-8.628-2.134H26.58v35.161h5.613a14.442 14.442 0 0 0 11.481-4.94q4.29-4.941 4.29-13.291zM78.718-18.23v-13.313h25.374v13.313zm92.959-26.348a21.633 21.633 0 0 1-3.456 12.107 22.518 22.518 0 0 1-9.857 8.187 35.783 35.783 0 0 1-14.89 2.9h-6.123V0h-20.039v-66.519h27.275q14.055 0 20.573 5.334t6.517 16.607zm-21.2.7q0-4.082-2.366-6.169t-6.958-2.087h-3.8v16.421h4.5q8.626-.005 8.626-8.169zM221.311 0l-2.922-12.246h-19.854L195.381 0h-21.663l22.915-66.519H221.5L243.066 0zm-12.617-52.046h-.464a32.312 32.312 0 0 1-.649 3.665q-.557 2.551-5.613 21.895h12.71l-4.639-18.091a57.208 57.208 0 0 1-1.345-7.469zm88.367 31.914a19.213 19.213 0 0 1-3.549 11.55 21.031 21.031 0 0 1-9.95 7.329 43.76 43.76 0 0 1-15.4 2.412 50.3 50.3 0 0 1-19.112-3.525V-20.6a37.75 37.75 0 0 0 9.231 4.94 27.153 27.153 0 0 0 9.417 1.879 9.3 9.3 0 0 0 5.1-1.183 3.871 3.871 0 0 0 1.809-3.456 4.685 4.685 0 0 0-.9-2.853 8.882 8.882 0 0 0-2.737-2.3 50.975 50.975 0 0 0-6.8-2.922q-16.05-6.169-16.05-19.946a18.638 18.638 0 0 1 7.329-15.424q7.329-5.775 19.668-5.775 3.479 0 6.4.278t5.311.7q2.389.417 6.7 1.577v16.931a34.252 34.252 0 0 0-16.514-4.592 10.191 10.191 0 0 0-5.381 1.252 3.854 3.854 0 0 0-2.041 3.433 4.3 4.3 0 0 0 1.647 3.456 30.874 30.874 0 0 0 6.888 3.549q10.344 4.175 14.635 9.138a17.428 17.428 0 0 1 4.299 11.786zm54.319 0a19.213 19.213 0 0 1-3.549 11.55 21.031 21.031 0 0 1-9.95 7.329 43.76 43.76 0 0 1-15.4 2.412 50.3 50.3 0 0 1-19.111-3.525V-20.6a37.75 37.75 0 0 0 9.231 4.94 27.153 27.153 0 0 0 9.417 1.879 9.3 9.3 0 0 0 5.1-1.183 3.871 3.871 0 0 0 1.809-3.456 4.685 4.685 0 0 0-.9-2.853 8.882 8.882 0 0 0-2.737-2.3 50.975 50.975 0 0 0-6.8-2.922q-16.05-6.169-16.05-19.946a18.638 18.638 0 0 1 7.329-15.424q7.329-5.775 19.668-5.775 3.479 0 6.4.278t5.311.7q2.389.417 6.7 1.577v16.931a34.252 34.252 0 0 0-16.514-4.592 10.191 10.191 0 0 0-5.381 1.252 3.854 3.854 0 0 0-2.041 3.433 4.3 4.3 0 0 0 1.647 3.456 30.874 30.874 0 0 0 6.888 3.549q10.344 4.175 14.635 9.138a17.428 17.428 0 0 1 4.297 11.786z" transform="translate(-6.541 67.632)"/>
</svg>
