<svg xmlns="http://www.w3.org/2000/svg" width="382.273" height="88.831" viewBox="0 0 382.273 88.831">
    <path fill="#3cb4ff" d="M67.446 0v-36.46q0-5.149.325-11.318l.139-3.062h-.557Q65.869-43 65.081-39.985L55.293 0H36.46L26.208-39.521q-.417-1.484-2.18-11.318h-.557q.649 15.586.649 19.482V0H6.541v-66.519h30.012l9.138 36.135a44.6 44.6 0 0 1 .858 4.523q.533 3.409.673 5.265h.278q.51-4.221 1.624-9.973l8.535-35.95h29.548V0zm40.264 22.312a39.908 39.908 0 0 1-5.984-.487 29.036 29.036 0 0 1-5.706-1.415V5.52a11.851 11.851 0 0 0 3.456 1.624 14.121 14.121 0 0 0 4.337.742q5.52 0 7.329-4.36l1.531-3.711L92.82-47.5h21.848l5.752 22.915a56.9 56.9 0 0 1 1.809 8.628h.186q.139-1.021.394-2.273t7.213-29.27h19.2L131.738 1.345q-3.943 11.226-9.764 16.1a21.483 21.483 0 0 1-14.264 4.867zm136.238-56.406a36.7 36.7 0 0 1-4.248 17.882 29.249 29.249 0 0 1-12.13 11.991A37.942 37.942 0 0 1 209.39 0h-28.157v-66.519h27.554q35.161 0 35.161 32.425zm-21.292.186a19.144 19.144 0 0 0-1.971-8.767 14.262 14.262 0 0 0-5.636-6.03 16.843 16.843 0 0 0-8.628-2.134h-5.149v35.161h5.613a14.442 14.442 0 0 0 11.481-4.94q4.29-4.941 4.29-13.291zM277.856 0v-7.236h-.186q-4.731 8.4-14.473 8.4-6.726 0-10.53-3.989t-3.8-10.669q0-14.009 17.209-16.235l11.782-1.531a4.493 4.493 0 0 0-2.087-3.8 9.507 9.507 0 0 0-5.613-1.484q-7.979 0-16.838 4.546v-12.858a45.046 45.046 0 0 1 9.648-2.737 56.152 56.152 0 0 1 9.927-1.067q12.107 0 17.557 5.172t5.45 17.279V0zm-11.689-16.143a4.378 4.378 0 0 0 1.229 3.2 4.686 4.686 0 0 0 3.5 1.252 6.227 6.227 0 0 0 5.033-2.319 8.986 8.986 0 0 0 1.925-5.937v-1.809l-6.68.928q-5.007.835-5.007 4.685zM338.252-.649A19.252 19.252 0 0 1 333.845.58a40.289 40.289 0 0 1-7.375.58q-8.257 0-12.919-4.546t-4.662-12.942v-17.488h-7.468V-47.5h7.468v-9.324l19.483-5.376v14.7h9.88v13.684h-9.88v14.241q0 6.262 4.963 6.262a13.464 13.464 0 0 0 4.917-1.021zM370.769 0v-7.236h-.186q-4.731 8.4-14.473 8.4-6.726 0-10.53-3.989t-3.8-10.669q0-14.009 17.209-16.235l11.782-1.531a4.493 4.493 0 0 0-2.087-3.8 9.507 9.507 0 0 0-5.613-1.484q-7.979 0-16.838 4.546v-12.858a45.047 45.047 0 0 1 9.648-2.737 56.152 56.152 0 0 1 9.927-1.067q12.107 0 17.557 5.172t5.45 17.279V0zM359.08-16.143a4.378 4.378 0 0 0 1.229 3.2 4.686 4.686 0 0 0 3.5 1.252 6.227 6.227 0 0 0 5.033-2.319 8.986 8.986 0 0 0 1.925-5.937v-1.809l-6.68.928q-5.007.835-5.007 4.685z" transform="translate(-6.541 66.519)"/>
</svg>
