<svg xmlns="http://www.w3.org/2000/svg" width="25.283" height="20.32" viewBox="0 0 25.283 20.32">
    <path fill="#44465a" d="M318.07 624.211a12.628 12.628 0 0 1-1.774 2.008c-.719.654-.591 1.1-.662 1.991a15.673 15.673 0 0 1-.823 3.913 14.88 14.88 0 0 1-4.428 6.436c-4.816 4.106-12.245 4.281-17.527 1.008 3.89.166 5.635-.634 7.66-2.132-2.035-.293-3.861-.838-4.86-3.629a3.948 3.948 0 0 0 2.274-.03c-1.878-.6-4.082-1.505-4.082-5.115a4.413 4.413 0 0 0 2.338.618 5.2 5.2 0 0 1-1.585-6.884c1.627 2.427 7.637 5.832 10.372 5.232a5.331 5.331 0 0 1 3.451-5.772 5.776 5.776 0 0 1 4.086.1 4.541 4.541 0 0 1 1.463.95.4.4 0 0 0 .209.139.369.369 0 0 0 .178-.009 18.24 18.24 0 0 0 2.841-1.152 5.1 5.1 0 0 1-2.2 2.865 23.06 23.06 0 0 0 2.655-.827.517.517 0 0 1 .346-.045c.133.036.192.168.068.335z" transform="translate(-292.855 -621.528)"/>
</svg>
