<svg xmlns="http://www.w3.org/2000/svg" width="110.666" height="25.031" viewBox="0 0 110.666 25.031">
    <defs>
        <style>
            .cls-1{fill:#1a1818}
        </style>
    </defs>
    <g id="그룹_79">
        <g id="그룹_78">
            <path id="패스_1194" d="M90.215 115.752a12.366 12.366 0 0 1 9.062 3.613 12.527 12.527 0 0 1-8.867 21.418 12.2 12.2 0 0 1-8.949-3.629 11.931 11.931 0 0 1-3.648-8.781 12.7 12.7 0 0 1 1.662-6.367 12.274 12.274 0 0 1 10.74-6.254zm.106 2.317a10.175 10.175 0 0 0-8.714 5.091 10.325 10.325 0 0 0-1.33 5.2 10.023 10.023 0 0 0 10.044 10.1 10.2 10.2 0 0 0 5.136-1.346 9.645 9.645 0 0 0 3.684-3.68 10.347 10.347 0 0 0 1.322-5.189 10.091 10.091 0 0 0-1.322-5.132 9.88 9.88 0 0 0-3.724-3.672 10.076 10.076 0 0 0-5.096-1.372z" class="cls-1" transform="translate(-77.813 -115.752)"/>
            <path id="패스_1195" d="M117.622 115.752h2.268v24.431h-2.268z" class="cls-1" transform="translate(-90.999 -115.752)"/>
            <path id="패스_1196" d="M123.734 115.752H126v24.431h-2.268z" class="cls-1" transform="translate(-93.023 -115.752)"/>
            <path id="패스_1197" d="M147.523 125.7v17.627h-2.236V140.3a9.717 9.717 0 0 1-3.2 2.608 8.938 8.938 0 0 1-10.271-1.839 9.1 9.1 0 0 1-2.649-6.6 8.937 8.937 0 0 1 2.673-6.513 8.719 8.719 0 0 1 6.432-2.705 8.317 8.317 0 0 1 3.929.924 8.943 8.943 0 0 1 3.086 2.77V125.7zm-9.065 1.734a6.838 6.838 0 0 0-6.044 3.544 7.141 7.141 0 0 0 .009 7.12 6.944 6.944 0 0 0 2.565 2.646 6.7 6.7 0 0 0 3.455.947 7.087 7.087 0 0 0 3.528-.938 6.571 6.571 0 0 0 2.565-2.541 7.254 7.254 0 0 0 .9-3.609 7.017 7.017 0 0 0-2.015-5.114 6.673 6.673 0 0 0-4.963-2.053z" class="cls-1" transform="translate(-94.822 -118.897)"/>
            <path id="패스_1198" d="M174.839 137.48l1.912 1a10.433 10.433 0 0 1-2.173 2.981 8.65 8.65 0 0 1-2.773 1.725 9.682 9.682 0 0 1-3.487.591 8.424 8.424 0 0 1-6.745-2.827 9.537 9.537 0 0 1-2.432-6.392 9.423 9.423 0 0 1 2.059-5.978 8.42 8.42 0 0 1 6.989-3.337 8.7 8.7 0 0 1 7.2 3.418 9.547 9.547 0 0 1 1.946 6.027h-15.861a7.174 7.174 0 0 0 1.962 5.035 6.262 6.262 0 0 0 4.688 1.964 7.529 7.529 0 0 0 2.62-.468 6.891 6.891 0 0 0 2.166-1.243 10.571 10.571 0 0 0 1.929-2.496zm0-4.747a7.516 7.516 0 0 0-1.322-2.9 6.265 6.265 0 0 0-2.295-1.75 7.034 7.034 0 0 0-3-.664 6.465 6.465 0 0 0-4.461 1.669 7.546 7.546 0 0 0-2.06 3.646z" class="cls-1" transform="translate(-104.75 -118.897)"/>
            <path id="패스_1199" d="M206.064 115.752v24.431h-2.236v-3.03a9.722 9.722 0 0 1-3.2 2.608 8.939 8.939 0 0 1-10.272-1.839 9.1 9.1 0 0 1-2.648-6.6 8.934 8.934 0 0 1 2.673-6.513 8.718 8.718 0 0 1 6.432-2.705 8.316 8.316 0 0 1 3.929.924 8.935 8.935 0 0 1 3.086 2.77v-10.046zM197 124.29a6.838 6.838 0 0 0-6.044 3.544 7.143 7.143 0 0 0 .008 7.12 6.948 6.948 0 0 0 2.565 2.646 6.7 6.7 0 0 0 3.456.947 7.087 7.087 0 0 0 3.528-.938 6.564 6.564 0 0 0 2.564-2.541 7.247 7.247 0 0 0 .9-3.609 7.017 7.017 0 0 0-2.014-5.114A6.674 6.674 0 0 0 197 124.29z" class="cls-1" transform="translate(-114.213 -115.752)"/>
            <path id="패스_1200" fill="#f98309" d="M219.693 116.648h2.382v14.387a29.765 29.765 0 0 0 .1 3.191 5.3 5.3 0 0 0 .826 2.357 4.875 4.875 0 0 0 1.993 1.588 6.245 6.245 0 0 0 2.706.64 5.338 5.338 0 0 0 2.268-.5 5.039 5.039 0 0 0 1.814-1.394 5.681 5.681 0 0 0 1.069-2.155 17.83 17.83 0 0 0 .243-3.726v-14.388h2.382v14.387a17.535 17.535 0 0 1-.624 5.16 7.019 7.019 0 0 1-2.5 3.427 7.145 7.145 0 0 1-4.528 1.458 8.681 8.681 0 0 1-4.942-1.377 6.628 6.628 0 0 1-2.754-3.646 19.308 19.308 0 0 1-.437-5.022z" transform="translate(-124.807 -116.049)"/>
        </g>
        <path id="패스_1201" fill="#00307f" d="M106.343 132.838l-3.259 1.974-3.259 1.974v-7.894l3.259 1.974z" transform="translate(-85.104 -120.104)"/>
    </g>
</svg>
