<svg xmlns="http://www.w3.org/2000/svg" id="구성_요소_27_1" width="25.32" height="25.32" viewBox="0 0 25.32 25.32">
    <defs>
        <style>
            .cls-1{fill:#fff}
        </style>
    </defs>
    <g id="그룹_3133" transform="translate(6.155 6.155)">
        <path id="패스_2811" d="M161.073 645.035a6.5 6.5 0 1 1 6.5-6.5 6.512 6.512 0 0 1-6.5 6.5zm0-10.844a4.339 4.339 0 1 0 4.339 4.339 4.344 4.344 0 0 0-4.339-4.339z" class="cls-1" transform="translate(-154.568 -632.026)"/>
    </g>
    <g id="그룹_3134">
        <path id="패스_2812" d="M162.78 646.848h-12.1a6.617 6.617 0 0 1-6.61-6.61v-12.1a6.617 6.617 0 0 1 6.61-6.61h12.1a6.617 6.617 0 0 1 6.61 6.61v12.1a6.617 6.617 0 0 1-6.61 6.61zm-12.1-23.154a4.449 4.449 0 0 0-4.444 4.444v12.1a4.449 4.449 0 0 0 4.444 4.444h12.1a4.449 4.449 0 0 0 4.444-4.444v-12.1a4.449 4.449 0 0 0-4.444-4.444z" class="cls-1" transform="translate(-144.07 -621.528)"/>
    </g>
    <g id="그룹_3135" transform="translate(17.851 4.367)">
        <circle id="타원_375" cx="1.496" cy="1.496" r="1.496" class="cls-1"/>
    </g>
</svg>
