<svg xmlns="http://www.w3.org/2000/svg" id="구성_요소_30_1" width="32.86" height="25.272" viewBox="0 0 32.86 25.272">
    <defs>
        <style>
            .cls-1{fill:#44465a}
        </style>
    </defs>
    <g id="그룹_3146">
        <g id="그룹_3140">
            <g id="그룹_3139">
                <path id="패스_2815" d="M393.618 621.61a20.62 20.62 0 0 0-11.357 3.166c-3.271 2.184-5.073 5.157-5.073 8.369a8.817 8.817 0 0 0 1.506 4.885 12.482 12.482 0 0 0 3.721 3.6 20.788 20.788 0 0 0 11.2 3.05c.523 0 1.053-.018 1.584-.056a2.521 2.521 0 0 0 2.505 2.256 2.594 2.594 0 0 0 .293-.016 6.529 6.529 0 0 0 3.164-1.177 5.484 5.484 0 0 0 2.077-3.171c4.277-2.149 6.8-5.6 6.8-9.372a8.807 8.807 0 0 0-1.507-4.883 12.47 12.47 0 0 0-3.722-3.6 20.781 20.781 0 0 0-11.2-3.05zm-13.912 11.535c0-2.345 1.4-4.574 3.953-6.275a18.1 18.1 0 0 1 9.959-2.742c7.67 0 13.91 4.047 13.91 9.016 0 2.976-2.293 5.765-6.134 7.459l-.422.189-.054.456a3.276 3.276 0 0 1-1.246 2.413 4.075 4.075 0 0 1-1.964.7l.047-.057c.033-.041.062-.082.091-.124a2.251 2.251 0 0 0 .4-1.311 2.992 2.992 0 0 0-.018-.334l-.092-.858-.85.152a13.455 13.455 0 0 1-1.762.242c-.639.06-1.275.09-1.9.09-7.672 0-13.912-4.046-13.912-9.018z" class="cls-1" transform="translate(-377.187 -621.61)"/>
            </g>
        </g>
        <g id="그룹_3145" transform="translate(8.247 8.777)">
            <g id="그룹_3141" transform="translate(0 .053)">
                <path id="패스_2816" d="M391.253 637.792v-1.123h3.353v1.123h-1.122v4.081h-1.123v-4.081z" class="cls-1" transform="translate(-391.253 -636.669)"/>
            </g>
            <g id="그룹_3142" transform="translate(3.398)">
                <path id="패스_2817" d="M397.048 641.836l1.442-4.558a.9.9 0 0 1 1.755 0l1.435 4.558h-1.168l-.354-1.123h-1.592l-.346 1.123zm2.776-2.189l-.529-1.683-.387 1.683z" class="cls-1" transform="translate(-397.048 -636.579)"/>
            </g>
            <g id="그룹_3143" transform="translate(8.338 .053)">
                <path id="패스_2818" d="M405.473 640.6v-3.932h1.113v3.843c0 .157.1.237.282.237h1.987l-.006 1.123h-2.074c-.076 0-.14 0-.193-.008a1.212 1.212 0 0 1-.856-.352 1.4 1.4 0 0 1-.253-.911z" class="cls-1" transform="translate(-405.473 -636.669)"/>
            </g>
            <g id="그룹_3144" transform="translate(12.189 .053)">
                <path id="패스_2819" d="M412.042 636.669h1.115v5.2h-1.115zm1.212 2.3a.7.7 0 0 0-.076.276 1.4 1.4 0 0 0 .216.541l1.167 2.091h1.286l-1.447-2.651 1.405-2.553h-1.282l-1.138 2.066z" class="cls-1" transform="translate(-412.042 -636.669)"/>
            </g>
        </g>
    </g>
</svg>
