<svg xmlns="http://www.w3.org/2000/svg" width="26.597" height="35.999" viewBox="0 0 26.597 35.999">
    <g>
        <path d="M12.223-36.45v18.713H4.415v-26.252h10.174q6.693 0 10.482 3.039a12.01 12.01 0 0 1 4.5 9.866 13.029 13.029 0 0 1-3.846 9.732 13.555 13.555 0 0 1-9.9 3.77q-.712 0-2.327-.077v-7.712h1.25q6.827 0 6.827-5.712 0-5.366-6.712-5.366z" transform="translate(-26 -25.011) translate(23.026 69)"/>
        <path fill="#fff" d="M6.863 0l6.863 9.549H0z" transform="translate(-26 -25.011) rotate(90 1.691 33.858)"/>
        <path d="M4.315-11.179v5.671H1.949v-5.671H.137v-2.285h5.985v2.285zm6.924.81V-8.6H9.695a.8.8 0 0 0-.446.093.359.359 0 0 0-.131.315.351.351 0 0 0 .134.329 1.243 1.243 0 0 0 .548.079h1.591v2.273h-1.86a2.894 2.894 0 0 1-2-.627 2.314 2.314 0 0 1-.694-1.81v-3.118a2.34 2.34 0 0 1 .656-1.772 2.556 2.556 0 0 1 1.845-.629h2.057v2.285H9.881q-.612 0-.612.4a.613.613 0 0 0 .146.323 1.912 1.912 0 0 0 .519.09zm5.245-3.13v2.267a1.338 1.338 0 0 0-.4-.087.619.619 0 0 0-.46.2.661.661 0 0 0-.192.478 1.307 1.307 0 0 0 .21.606l.181.315a3.3 3.3 0 0 1 .49 1.643 2.639 2.639 0 0 1-.825 1.964 2.775 2.775 0 0 1-2.014.8 2.641 2.641 0 0 1-1.131-.262v-2.3a1.155 1.155 0 0 0 .6.216.764.764 0 0 0 .516-.178.563.563 0 0 0 .207-.446 2.271 2.271 0 0 0-.332-.763 3.744 3.744 0 0 1-.53-1.865 2.665 2.665 0 0 1 .8-1.938 2.594 2.594 0 0 1 1.914-.813 2.924 2.924 0 0 1 .966.162zm4.662 2.32v5.671H18.78v-5.671h-1.812v-2.285h5.985v2.285z" transform="translate(-26 -25.011) translate(27.735 66.32)"/>
    </g>
</svg>
