<svg xmlns="http://www.w3.org/2000/svg" id="Icons_24px_Notifications" width="53" height="53" viewBox="0 0 53 53">
    <defs>
        <style>
            .cls-2{fill:rgba(0,0,0,.6)}
        </style>
    </defs>
    <path id="Boundary" fill="none" d="M0 0H53V53H0z"/>
    <g id="bell" transform="translate(4.833 2.699)">
        <g id="icon">
            <path id="패스_2" d="M14.551 20.5a2 2 0 0 1-.27 1.013 2.025 2.025 0 0 1-3.511 0 2 2 0 0 1-.27-1.013z" class="cls-2" transform="translate(8.924 24.734)"/>
            <path id="패스_3" d="M25.038 5.761A3.286 3.286 0 0 1 28.35 9.02a1.234 1.234 0 0 1 0 .426 12.817 12.817 0 0 1 9.837 12.609V29.3a12.929 12.929 0 0 0 3.848 9.15 2.139 2.139 0 0 1 .663 1.554 2.187 2.187 0 0 1-.648 1.576 2.261 2.261 0 0 1-1.595.655H9.748a2.261 2.261 0 0 1-1.595-.655 2.187 2.187 0 0 1-.653-1.575 2.139 2.139 0 0 1 .663-1.554 12.929 12.929 0 0 0 3.848-9.15v-6.694a13.739 13.739 0 0 1 9.76-13.086 2.713 2.713 0 0 1 0-.451 3.284 3.284 0 0 1 3.262-3.309m0-3.76a7.128 7.128 0 0 0-6.753 4.738A17.678 17.678 0 0 0 8.091 22.607V29.2a9.051 9.051 0 0 1-2.752 6.493 5.92 5.92 0 0 0-1.274 6.556A6.1 6.1 0 0 0 9.748 45.9h30.834a6.067 6.067 0 0 0 5.617-3.69 5.9 5.9 0 0 0-1.336-6.513 9.125 9.125 0 0 1-2.726-6.497v-7.144A16.688 16.688 0 0 0 31.944 6.714 7.131 7.131 0 0 0 25.038 2z" class="cls-2" transform="translate(-3.58 -1.999)"/>
        </g>
    </g>
</svg>
