<svg id="_x31__x2C_5" enable-background="new 0 0 24 24" height="512" viewBox="0 0 24 24" width="512" xmlns="http://www.w3.org/2000/svg">
  <g>
    <path fill="#637192" d="m11.483 19.017c-3.033 0-5.5-2.467-5.5-5.5s2.467-5.5 5.5-5.5 5.5 2.467 5.5 5.5-2.467 5.5-5.5 5.5zm0-9.5c-2.206 0-4 1.794-4 4s1.794 4 4 4 4-1.794 4-4-1.795-4-4-4z"/>
  </g>
  <g>
    <path fill="#637192" d="m18.267 20.983c-.192 0-.384-.073-.53-.22l-3.216-3.216c-.293-.293-.293-.768 0-1.061s.768-.293 1.061 0l3.216 3.216c.293.293.293.768 0 1.061-.147.147-.339.22-.531.22z"/>
  </g>
  <g>
    <path fill="#637192" d="m21.25 23h-18.5c-1.517 0-2.75-1.233-2.75-2.75v-16.5c0-1.517 1.233-2.75 2.75-2.75h18.5c1.517 0 2.75 1.233 2.75 2.75v16.5c0 1.517-1.233 2.75-2.75 2.75zm-18.5-20.5c-.689 0-1.25.561-1.25 1.25v16.5c0 .689.561 1.25 1.25 1.25h18.5c.689 0 1.25-.561 1.25-1.25v-16.5c0-.689-.561-1.25-1.25-1.25z"/>
  </g>
  <g>
    <path fill="#637192" d="m23.25 6h-22.5c-.414 0-.75-.336-.75-.75s.336-.75.75-.75h22.5c.414 0 .75.336.75.75s-.336.75-.75.75z"/>
  </g>
</svg>
